<?xml version="1.0" encoding="utf-8"?>
<!-- Generator: Adobe Illustrator 27.4.0, SVG Export Plug-In . SVG Version: 6.00 Build 0)  -->
<svg version="1.1"
	 id="svg12" xmlns:inkscape="http://www.inkscape.org/namespaces/inkscape" xmlns:svg="http://www.w3.org/2000/svg" xmlns:sodipodi="http://sodipodi.sourceforge.net/DTD/sodipodi-0.dtd"
	 xmlns="http://www.w3.org/2000/svg" xmlns:xlink="http://www.w3.org/1999/xlink" x="0px" y="0px" viewBox="0 0 46.6 30.4"
	 style="enable-background:new 0 0 46.6 30.4;" xml:space="preserve">
<style type="text/css">
	
		.st0{fill:url(#SVGID_1_);stroke:url(#SVGID_00000039108532349190008340000015125793648647086224_);stroke-width:0.5;stroke-miterlimit:10;}
	
		.st1{fill:url(#SVGID_00000181775521146071934280000003807217517068509827_);stroke:url(#SVGID_00000129892195231610743210000001497664679112633278_);stroke-width:0.5;stroke-miterlimit:10;}
	
		.st2{fill:url(#SVGID_00000087407857942816638230000017377602278964084128_);stroke:url(#SVGID_00000005241650612865858990000003161077022292264593_);stroke-width:0.5;stroke-miterlimit:10;}
</style>
<sodipodi:namedview  bordercolor="#000000" borderopacity="0.25" id="namedview14" inkscape:deskcolor="#d1d1d1" inkscape:pagecheckerboard="0" inkscape:pageopacity="0.0" inkscape:showpageshadow="2" pagecolor="#ffffff">
	</sodipodi:namedview>
<g>
	<linearGradient id="SVGID_1_" gradientUnits="userSpaceOnUse" x1="0.25" y1="15.1763" x2="46.3443" y2="15.1763">
		<stop  offset="0" style="stop-color:#EF4136"/>
		<stop  offset="1" style="stop-color:#FBB040"/>
	</linearGradient>
	
		<linearGradient id="SVGID_00000019671123535735334650000014201141737155162044_" gradientUnits="userSpaceOnUse" x1="0" y1="15.1763" x2="46.5943" y2="15.1763">
		<stop  offset="0" style="stop-color:#EF4136"/>
		<stop  offset="1" style="stop-color:#FBB040"/>
	</linearGradient>
	
		<path style="fill:url(#SVGID_1_);stroke:url(#SVGID_00000019671123535735334650000014201141737155162044_);stroke-width:0.5;stroke-miterlimit:10;" d="
		M46.1,26.8c-0.2,0-0.3,0-0.5,0c-4.3,0-8.5,0-12.8,0c-1.3,0-2.4-0.4-3.3-1.2c-1.6-1.4-3.2-2.9-4.7-4.4c-0.2-0.1-0.3-0.4-0.3-0.6
		c0-3.6,0-7.3,0-10.9c0-0.4,0.1-0.7,0.4-1c1.4-1.3,2.9-2.6,4.3-3.9c1-0.9,2.2-1.3,3.5-1.3c4.3,0,8.6,0,13,0c0.1,0,0.3,0,0.5,0
		c0.1,0,0.2-0.1,0.2-0.2V0.5c0-0.1-0.1-0.2-0.2-0.2c0,0-0.1,0-0.1,0c-4.7,0-9.4,0-14.1,0c-0.9,0-1.7,0.2-2.4,0.8
		c-1,0.7-1.9,1.5-2.8,2.4c-1.2,1-2.3,2.1-3.5,3.2c-0.1,0.1-0.2,0.1-0.3,0c-0.1-0.1-0.2-0.2-0.3-0.3c-1.5-1.4-3-2.8-4.5-4.3
		c-1.3-1.3-2.8-1.8-4.6-1.8c-4.3,0-8.6,0-13,0c-0.1,0-0.2,0-0.3,0c-0.1,0-0.2,0.1-0.2,0.2v2.9c0,0.1,0.1,0.2,0.2,0.2
		c0.1,0,0.2,0,0.3,0c4.4,0,8.8,0,13.2,0c1.3,0,2.3,0.4,3.3,1.3c1.5,1.5,3.1,2.9,4.6,4.3c0,0,0.1,0.1,0.1,0.1c0,3.7,0,7.4,0,11.1
		c0,0.2-0.1,0.6-0.3,0.7c-1.2,1.1-2.4,2.1-3.6,3.3c-1.7,1.7-3.6,2.4-6,2.3c-3.7-0.1-7.5,0-11.2,0c-0.1,0-0.3,0-0.4,0
		c-0.1,0-0.2,0.1-0.2,0.2l0,2.9c0,0.1,0.1,0.2,0.2,0.2c0,0,0,0,0,0c4.5,0,9,0,13.5,0c1.4,0,2.6-0.5,3.6-1.5c0.6-0.5,1.1-1,1.7-1.6
		c1.3-1.2,2.6-2.4,3.9-3.6c0.1-0.1,0.2-0.1,0.3,0c1.6,1.5,3.1,2.9,4.6,4.4c1.5,1.5,3.2,2.2,5.3,2.2c4.1-0.1,8.3,0,12.4,0h0.4
		c0.1,0,0.2-0.1,0.2-0.2l0-2.9C46.3,26.9,46.2,26.8,46.1,26.8z"/>
	
		<linearGradient id="SVGID_00000007408094915134850210000004428855449611614854_" gradientUnits="userSpaceOnUse" x1="0.2605" y1="15.1515" x2="18.3955" y2="15.1515">
		<stop  offset="0" style="stop-color:#EF4136"/>
		<stop  offset="1" style="stop-color:#FBB040"/>
	</linearGradient>
	
		<linearGradient id="SVGID_00000052825998152319905280000001940154203943117999_" gradientUnits="userSpaceOnUse" x1="1.046217e-02" y1="15.1515" x2="18.6455" y2="15.1515">
		<stop  offset="0" style="stop-color:#EF4136"/>
		<stop  offset="1" style="stop-color:#FBB040"/>
	</linearGradient>
	
		<path style="fill:url(#SVGID_00000007408094915134850210000004428855449611614854_);stroke:url(#SVGID_00000052825998152319905280000001940154203943117999_);stroke-width:0.5;stroke-miterlimit:10;" d="
		M12.1,19.9c-2.3,0.1-4.6,0-7,0.1c0,0-0.1,0-0.1,0c-0.1,0-0.2-0.1-0.2-0.2l0-5.7c0-0.1-0.1-0.2-0.2-0.2H0.5c-0.1,0-0.2,0.1-0.2,0.2
		v9.2c0,0.1,0.1,0.2,0.2,0.2c0,0,0,0,0,0c4,0,8,0,12,0c1,0,1.9-0.3,2.6-1c0.9-0.7,1.7-1.5,2.6-2.3c0.4-0.4,0.6-0.9,0.6-1.5
		c0-2.6,0-5.1,0-7.7c0-0.3-0.2-0.6-0.4-0.8c-0.7-0.7-1.5-1.3-2.3-2.1c-0.9-0.9-1.9-1.2-3.2-1.2c-3.9,0-7.8,0-11.7,0
		c-0.1,0-0.2,0-0.3,0C0.3,6.9,0.3,7,0.3,7.1V10c0,0.1,0.1,0.2,0.2,0.2c2.5,0,5,0,7.5,0c1.4,0,2.7,0,4.1,0c1.7,0,2.9,1.3,2.9,2.9
		c0,1.2,0,2.5,0,3.7C15,18.6,13.8,19.8,12.1,19.9z"/>
	
		<linearGradient id="SVGID_00000136410847850792685360000007028822194283098765_" gradientUnits="userSpaceOnUse" x1="27.785" y1="15.1614" x2="46.3931" y2="15.1614">
		<stop  offset="0" style="stop-color:#EF4136"/>
		<stop  offset="1" style="stop-color:#FBB040"/>
	</linearGradient>
	
		<linearGradient id="SVGID_00000180331190318869319790000001378919264316600741_" gradientUnits="userSpaceOnUse" x1="27.535" y1="15.1614" x2="46.6431" y2="15.1614">
		<stop  offset="0" style="stop-color:#EF4136"/>
		<stop  offset="1" style="stop-color:#FBB040"/>
	</linearGradient>
	
		<path style="fill:url(#SVGID_00000136410847850792685360000007028822194283098765_);stroke:url(#SVGID_00000180331190318869319790000001378919264316600741_);stroke-width:0.5;stroke-miterlimit:10;" d="
		M46.3,13.8C46.3,13.8,46.3,13.8,46.3,13.8l-6.1,0c-0.1,0-0.2,0.1-0.2,0.2v2.7c0,0.1,0.1,0.2,0.2,0.2h1.4c0.1,0,0.2,0.1,0.2,0.2v2.6
		c0,0.1-0.1,0.2-0.2,0.2c-2,0-3.9,0-5.9,0c-0.7,0-1.3,0-2-0.1c-1.4-0.1-2.7-1.5-2.7-2.9c0-1.2,0-2.3,0-3.5c-0.1-1,0.4-1.7,1-2.3
		c0.7-0.6,1.5-0.9,2.5-0.9c3.7,0,7.4,0,11.1,0c0.1,0,0.3,0,0.4,0c0.1,0,0.2-0.1,0.2-0.2V7.1c0-0.1-0.1-0.2-0.2-0.2c0,0-0.1,0-0.1,0
		c-4.2,0-8.4,0-12.6,0c-0.8,0-1.5,0.2-2,0.7c-1.1,1-2.2,2-3.3,3c-0.1,0.1-0.2,0.3-0.2,0.5c0,2.7,0,5.3,0,8c0,0.2,0.1,0.4,0.2,0.5
		c1,1,2.1,2,3.1,3c0.6,0.5,1.3,0.9,2.2,0.9c4.2,0,8.4,0,12.7,0c0.1,0,0.2,0,0.3,0h0.1L46.3,13.8L46.3,13.8z"/>
</g>
</svg>
